<svg width="41" height="41" viewBox="0 0 41 41" fill="none" xmlns="http://www.w3.org/2000/svg">
<path d="M22.6355 26.8275C22.6355 27.4946 22.3706 28.1343 21.8989 28.6059C21.4272 29.0776 20.7875 29.3426 20.1205 29.3426C19.4535 29.3426 18.8138 29.0776 18.3421 28.6059C17.8704 28.1343 17.6055 27.4946 17.6055 26.8275C17.6055 26.1605 17.8704 25.5208 18.3421 25.0491C18.8138 24.5775 19.4535 24.3125 20.1205 24.3125C20.7875 24.3125 21.4272 24.5775 21.8989 25.0491C22.3706 25.5208 22.6355 26.1605 22.6355 26.8275Z" fill="#262626"/>
<path d="M24.0561 1.10742L29.388 8.57876L32.904 7.37993L36.1132 16.7677H37.7262V36.888H2.51562V16.7677H3.37074V16.751L4.45723 16.761L24.0561 1.10742ZM15.7565 16.7677H32.5703L30.8316 11.6823L28.2797 12.4989L15.7565 16.7677ZM13.1442 14.1135L26.0731 9.70885L23.3837 5.93629L13.1442 14.1135ZM9.22239 20.1211H5.86901V23.4745C6.75838 23.4745 7.61133 23.1212 8.24021 22.4923C8.86909 21.8634 9.22239 21.0105 9.22239 20.1211ZM25.9893 26.8279C25.9893 26.0572 25.8375 25.2941 25.5426 24.5821C25.2477 23.8701 24.8154 23.2232 24.2705 22.6783C23.7256 22.1333 23.0786 21.7011 22.3666 21.4062C21.6546 21.1112 20.8915 20.9595 20.1209 20.9595C19.3502 20.9595 18.5871 21.1112 17.8751 21.4062C17.1632 21.7011 16.5162 22.1333 15.9713 22.6783C15.4264 23.2232 14.9941 23.8701 14.6992 24.5821C14.4043 25.2941 14.2525 26.0572 14.2525 26.8279C14.2525 28.3843 14.8707 29.8769 15.9713 30.9775C17.0718 32.078 18.5645 32.6963 20.1209 32.6963C21.6773 32.6963 23.1699 32.078 24.2705 30.9775C25.371 29.8769 25.9893 28.3843 25.9893 26.8279ZM34.3728 33.5346V30.1813C33.4834 30.1813 32.6304 30.5346 32.0016 31.1634C31.3727 31.7923 31.0194 32.6453 31.0194 33.5346H34.3728ZM31.0194 20.1211C31.0194 21.0105 31.3727 21.8634 32.0016 22.4923C32.6304 23.1212 33.4834 23.4745 34.3728 23.4745V20.1211H31.0194ZM5.86901 33.5346H9.22239C9.22239 32.6453 8.86909 31.7923 8.24021 31.1634C7.61133 30.5346 6.75838 30.1813 5.86901 30.1813V33.5346Z" fill="#fff"/>
</svg>
