<svg width="41" height="41" viewBox="0 0 41 41" fill="none" xmlns="http://www.w3.org/2000/svg">
<g clip-path="url(#clip0_1107_5066)">
<path d="M5.86842 11.737C5.86842 9.51354 6.75168 7.38118 8.32388 5.80897C9.89608 4.23677 12.0284 3.35352 14.2519 3.35352C16.4753 3.35352 18.6077 4.23677 20.1799 5.80897C21.7521 7.38118 22.6353 9.51354 22.6353 11.737C22.6353 13.9604 21.7521 16.0928 20.1799 17.665C18.6077 19.2372 16.4753 20.1204 14.2519 20.1204C12.0284 20.1204 9.89608 19.2372 8.32388 17.665C6.75168 16.0928 5.86842 13.9604 5.86842 11.737ZM8.38346 23.4738C6.16003 23.4738 4.02766 24.3571 2.45546 25.9293C0.883255 27.5015 0 29.6338 0 31.8573L0 35.2107H28.5038V31.8573C28.5038 29.6338 27.6205 27.5015 26.0483 25.9293C24.4761 24.3571 22.3437 23.4738 20.1203 23.4738H8.38346ZM40.2406 35.2107H31.8571V31.8573C31.8571 28.5726 30.5091 25.6032 28.3361 23.4738H31.8571C32.9581 23.4738 34.0482 23.6907 35.0654 24.112C36.0825 24.5333 37.0067 25.1508 37.7851 25.9293C38.5636 26.7078 39.1811 27.6319 39.6024 28.6491C40.0238 29.6662 40.2406 30.7563 40.2406 31.8573V35.2107ZM25.9887 20.1204C24.9652 20.1209 23.9503 19.9339 22.9941 19.5688C24.9267 17.4185 25.9937 14.6281 25.9887 11.737C25.9932 8.8456 24.9257 6.05522 22.9925 3.90515C24.1411 3.46652 25.3721 3.28591 26.5983 3.37611C27.8245 3.46631 29.0159 3.82512 30.0879 4.42711C31.16 5.02909 32.0865 5.85951 32.8018 6.85952C33.5171 7.85952 34.0038 9.00463 34.2272 10.2137C34.4506 11.4227 34.4053 12.6661 34.0946 13.8557C33.7838 15.0453 33.2153 16.152 32.4291 17.0973C31.643 18.0427 30.6585 18.8035 29.5455 19.326C28.4325 19.8484 27.2182 20.1196 25.9887 20.1204Z" fill="#fff"/>
</g>
<defs>
<clipPath id="clip0_1107_5066">
<rect width="40.2406" height="40.2406" fill="white"/>
</clipPath>
</defs>
</svg>
