<svg width="188" height="40" viewBox="0 0 188 40" fill="none" xmlns="http://www.w3.org/2000/svg">
<mask id="mask0_299_1905" style="mask-type:alpha" maskUnits="userSpaceOnUse" x="0" y="0" width="40" height="40">
<rect y="16.5513" width="40" height="6.89655" fill="#D9D9D9"/>
<rect x="16.5518" y="40" width="40" height="6.89655" transform="rotate(-90 16.5518 40)" fill="#D9D9D9"/>
<rect x="3.41992" y="31.7036" width="40" height="6.89655" transform="rotate(-45 3.41992 31.7036)" fill="#D9D9D9"/>
<rect x="31.7036" y="36.5806" width="40" height="6.89655" transform="rotate(-135 31.7036 36.5806)" fill="#D9D9D9"/>
</mask>
<g mask="url(#mask0_299_1905)">
<rect width="40" height="23.4482" fill="#262626"/>
</g>
<path d="M16.5211 39.5977L16.5211 28.2971L8.30725 36.5935L3.37732 31.7125L19.984 14.9388L36.665 31.7067L31.7468 36.5995L23.4586 28.2683L23.4586 39.5977L16.5211 39.5977Z" fill="#E9A6C7"/>
<path d="M66.232 29V23.216C65.72 23.28 65.264 23.328 64.864 23.36C64.48 23.392 64.104 23.416 63.736 23.432C63.384 23.448 62.992 23.456 62.56 23.456C61.216 23.456 60.072 23.256 59.128 22.856C58.184 22.456 57.464 21.824 56.968 20.96C56.488 20.08 56.248 18.928 56.248 17.504V12.008H59.68V17.144C59.68 17.976 59.808 18.616 60.064 19.064C60.32 19.512 60.72 19.824 61.264 20C61.808 20.16 62.496 20.24 63.328 20.24C63.744 20.24 64.208 20.232 64.72 20.216C65.248 20.184 65.752 20.128 66.232 20.048V12.008H69.664V29H66.232ZM78.5571 29.168C77.2291 29.168 76.1011 28.904 75.1731 28.376C74.2451 27.848 73.5331 27.104 73.0371 26.144C72.5411 25.168 72.2931 24.032 72.2931 22.736C72.2931 21.424 72.5491 20.28 73.0611 19.304C73.5731 18.312 74.2931 17.536 75.2211 16.976C76.1651 16.416 77.2771 16.136 78.5571 16.136C79.5011 16.136 80.3331 16.296 81.0531 16.616C81.7891 16.936 82.4051 17.384 82.9011 17.96C83.4131 18.52 83.7971 19.184 84.0531 19.952C84.3091 20.704 84.4291 21.528 84.4131 22.424C84.3971 22.648 84.3811 22.864 84.3651 23.072C84.3651 23.28 84.3411 23.488 84.2931 23.696H75.6291C75.6771 24.176 75.8131 24.616 76.0371 25.016C76.2611 25.416 76.5731 25.736 76.9731 25.976C77.3891 26.2 77.9011 26.312 78.5091 26.312C78.9091 26.312 79.2771 26.272 79.6131 26.192C79.9491 26.096 80.2371 25.952 80.4771 25.76C80.7171 25.568 80.8851 25.344 80.9811 25.088H84.2931C84.0851 26.032 83.6931 26.808 83.1171 27.416C82.5571 28.024 81.8771 28.472 81.0771 28.76C80.2771 29.032 79.4371 29.168 78.5571 29.168ZM75.7011 21.344H81.1971C81.1811 20.912 81.0691 20.512 80.8611 20.144C80.6691 19.76 80.3731 19.456 79.9731 19.232C79.5891 18.992 79.0931 18.872 78.4851 18.872C77.8771 18.872 77.3651 18.992 76.9491 19.232C76.5491 19.472 76.2451 19.784 76.0371 20.168C75.8451 20.536 75.7331 20.928 75.7011 21.344ZM86.5778 29V16.352H89.9378V21.2H91.8578L94.9538 16.352H98.7458L94.7858 22.304L98.7698 29H94.9058L92.0498 24.2H89.9378V29H86.5778ZM100.289 29V16.352H111.761V29H108.425V19.352H103.649V29H100.289ZM120.302 29.168C119.022 29.168 117.902 28.912 116.942 28.4C115.982 27.872 115.238 27.128 114.71 26.168C114.182 25.192 113.918 24.04 113.918 22.712C113.918 21.352 114.182 20.184 114.71 19.208C115.254 18.216 115.998 17.456 116.942 16.928C117.902 16.4 119.014 16.136 120.278 16.136C121.558 16.136 122.67 16.408 123.614 16.952C124.558 17.496 125.294 18.256 125.822 19.232C126.35 20.208 126.614 21.376 126.614 22.736C126.614 24.064 126.35 25.216 125.822 26.192C125.31 27.152 124.582 27.888 123.638 28.4C122.71 28.912 121.598 29.168 120.302 29.168ZM120.254 26.096C121.006 26.096 121.598 25.936 122.03 25.616C122.478 25.296 122.798 24.88 122.99 24.368C123.198 23.856 123.302 23.312 123.302 22.736C123.302 22.16 123.198 21.608 122.99 21.08C122.798 20.536 122.478 20.096 122.03 19.76C121.598 19.408 121.006 19.232 120.254 19.232C119.534 19.232 118.95 19.408 118.502 19.76C118.054 20.096 117.726 20.528 117.518 21.056C117.326 21.584 117.23 22.144 117.23 22.736C117.23 23.312 117.326 23.856 117.518 24.368C117.726 24.88 118.054 25.296 118.502 25.616C118.95 25.936 119.534 26.096 120.254 26.096ZM128.765 29V16.352H132.125V23.84C132.237 23.68 132.357 23.52 132.485 23.36C132.613 23.184 132.725 23.032 132.821 22.904L137.885 16.352H140.813V29H137.429V21.656C137.317 21.832 137.189 22.008 137.045 22.184C136.917 22.344 136.789 22.504 136.661 22.664L131.789 29H128.765ZM143.461 29V16.352H146.821V21.224H151.597V16.352H154.957V29H151.597V24.224H146.821V29H143.461ZM160.593 29V19.352H156.465V16.352H168.081V19.352H163.929V29H160.593Z" fill="#262626"/>
</svg>
