<svg width="129" height="32" viewBox="0 0 129 32" fill="none" xmlns="http://www.w3.org/2000/svg">
<mask id="mask0_2747_776" style="mask-type:alpha" maskUnits="userSpaceOnUse" x="0" y="0" width="32" height="32">
<rect y="13.241" width="32" height="5.51724" fill="#D9D9D9"/>
<rect x="13.2422" y="32" width="32" height="5.51724" transform="rotate(-90 13.2422 32)" fill="#D9D9D9"/>
<rect x="2.73633" y="25.3628" width="32" height="5.51724" transform="rotate(-45 2.73633 25.3628)" fill="#D9D9D9"/>
<rect x="25.3633" y="29.2646" width="32" height="5.51724" transform="rotate(-135 25.3633 29.2646)" fill="#D9D9D9"/>
</mask>
<g mask="url(#mask0_2747_776)">
<rect width="32" height="18.7586" fill="#262626"/>
</g>
<path d="M13.2169 31.678L13.2169 22.6375L6.6458 29.2747L2.70186 25.3699L15.9872 11.9509L29.332 25.3652L25.3975 29.2794L18.7669 22.6145L18.7669 31.678L13.2169 31.678Z" fill="#EAC01B"/>
<path d="M46.4352 22.8629V18.1441C46.0232 18.1963 45.6562 18.2354 45.3343 18.2615C45.0252 18.2876 44.7227 18.3072 44.4265 18.3203C44.1432 18.3333 43.8277 18.3399 43.4801 18.3399C42.3985 18.3399 41.4778 18.1767 40.7181 17.8503C39.9584 17.524 39.379 17.0084 38.9798 16.3035C38.5935 15.5855 38.4004 14.6457 38.4004 13.4839V9H41.1624V13.1902C41.1624 13.869 41.2654 14.3911 41.4714 14.7566C41.6774 15.1221 41.9993 15.3767 42.4371 15.5203C42.8749 15.6508 43.4286 15.7161 44.0981 15.7161C44.4329 15.7161 44.8063 15.7096 45.2184 15.6965C45.6433 15.6704 46.0489 15.6247 46.4352 15.5594V9H49.1972V22.8629H46.4352Z" fill="#262626"/>
<path d="M56.3541 23C55.2853 23 54.3776 22.7846 53.6307 22.3538C52.8839 21.9231 52.3109 21.3161 51.9117 20.5329C51.5126 19.7366 51.313 18.8098 51.313 17.7524C51.313 16.6821 51.519 15.7487 51.9311 14.9524C52.3431 14.1431 52.9225 13.51 53.6694 13.0531C54.4291 12.5963 55.324 12.3678 56.3541 12.3678C57.1138 12.3678 57.7833 12.4984 58.3628 12.7594C58.9551 13.0205 59.4508 13.386 59.85 13.8559C60.262 14.3128 60.5711 14.8545 60.7771 15.4811C60.9831 16.0946 61.0797 16.7669 61.0668 17.4979C61.0539 17.6807 61.041 17.8569 61.0282 18.0266C61.0282 18.1963 61.0088 18.366 60.9702 18.5357H53.9977C54.0363 18.9273 54.1458 19.2862 54.3261 19.6126C54.5063 19.9389 54.7574 20.2 55.0793 20.3958C55.4141 20.5786 55.8261 20.6699 56.3154 20.6699C56.6373 20.6699 56.9335 20.6373 57.2039 20.572C57.4743 20.4937 57.7061 20.3762 57.8992 20.2196C58.0924 20.0629 58.2276 19.8802 58.3048 19.6713H60.9702C60.8028 20.4415 60.4874 21.0746 60.0238 21.5706C59.5731 22.0667 59.0259 22.4322 58.3821 22.6671C57.7383 22.889 57.0623 23 56.3541 23ZM54.0556 16.6168H58.4787C58.4658 16.2643 58.3756 15.938 58.2083 15.6378C58.0537 15.3245 57.8155 15.0765 57.4936 14.8937C57.1846 14.6979 56.7854 14.6 56.2961 14.6C55.8068 14.6 55.3948 14.6979 55.06 14.8937C54.7381 15.0895 54.4934 15.3441 54.3261 15.6573C54.1715 15.9576 54.0814 16.2774 54.0556 16.6168Z" fill="#262626"/>
<path d="M62.8089 22.8629V12.5441H65.5129V16.4993H67.058L69.5496 12.5441H72.6013L69.4144 17.4L72.6206 22.8629H69.511L67.2126 18.9469H65.5129V22.8629H62.8089Z" fill="#262626"/>
<path d="M73.843 22.8629V12.5441H83.0753V22.8629H80.3906V14.9916H76.547V22.8629H73.843Z" fill="#262626"/>
<path d="M89.9491 23C88.919 23 88.0177 22.7911 87.2451 22.3734C86.4725 21.9427 85.8738 21.3357 85.4489 20.5524C85.0239 19.7562 84.8115 18.8163 84.8115 17.7329C84.8115 16.6233 85.0239 15.6704 85.4489 14.8741C85.8866 14.0648 86.4854 13.4448 87.2451 13.014C88.0177 12.5832 88.9126 12.3678 89.9298 12.3678C90.9599 12.3678 91.8548 12.5897 92.6145 13.0336C93.3742 13.4774 93.9665 14.0974 94.3914 14.8937C94.8164 15.69 95.0288 16.6429 95.0288 17.7524C95.0288 18.8359 94.8164 19.7758 94.3914 20.572C93.9794 21.3552 93.3935 21.9557 92.6338 22.3734C91.887 22.7911 90.9921 23 89.9491 23ZM89.9105 20.4937C90.5157 20.4937 90.9921 20.3632 91.3398 20.1021C91.7003 19.841 91.9578 19.5016 92.1123 19.0839C92.2797 18.6662 92.3634 18.2224 92.3634 17.7524C92.3634 17.2825 92.2797 16.8322 92.1123 16.4014C91.9578 15.9576 91.7003 15.5986 91.3398 15.3245C90.9921 15.0373 90.5157 14.8937 89.9105 14.8937C89.3311 14.8937 88.8611 15.0373 88.5005 15.3245C88.14 15.5986 87.876 15.951 87.7086 16.3818C87.5541 16.8126 87.4769 17.2695 87.4769 17.7524C87.4769 18.2224 87.5541 18.6662 87.7086 19.0839C87.876 19.5016 88.14 19.841 88.5005 20.1021C88.8611 20.3632 89.3311 20.4937 89.9105 20.4937Z" fill="#262626"/>
<path d="M96.76 22.8629V12.5441H99.464V18.6531C99.5542 18.5226 99.6507 18.3921 99.7538 18.2615C99.8568 18.1179 99.9469 17.9939 100.024 17.8895L104.1 12.5441H106.456V22.8629H103.733V16.8713C103.642 17.0149 103.539 17.1585 103.424 17.3021C103.32 17.4326 103.217 17.5632 103.114 17.6937L99.1936 22.8629H96.76Z" fill="#262626"/>
<path d="M108.586 22.8629V12.5441H111.29V16.5189H115.134V12.5441H117.838V22.8629H115.134V18.9664H111.29V22.8629H108.586Z" fill="#262626"/>
<path d="M122.374 22.8629V14.9916H119.052V12.5441H128.4V14.9916H125.059V22.8629H122.374Z" fill="#262626"/>
</svg>
