<svg width="20" height="20" viewBox="0 0 20 20" fill="none" xmlns="http://www.w3.org/2000/svg">
<path d="M2.91667 5.83317C2.91667 4.7281 3.35565 3.66829 4.13705 2.88689C4.91846 2.10549 5.97826 1.6665 7.08333 1.6665C8.1884 1.6665 9.24821 2.10549 10.0296 2.88689C10.811 3.66829 11.25 4.7281 11.25 5.83317C11.25 6.93824 10.811 7.99805 10.0296 8.77945C9.24821 9.56085 8.1884 9.99984 7.08333 9.99984C5.97826 9.99984 4.91846 9.56085 4.13705 8.77945C3.35565 7.99805 2.91667 6.93824 2.91667 5.83317ZM4.16667 11.6665C3.0616 11.6665 2.00179 12.1055 1.22039 12.8869C0.438987 13.6683 0 14.7281 0 15.8332L0 17.4998H14.1667V15.8332C14.1667 14.7281 13.7277 13.6683 12.9463 12.8869C12.1649 12.1055 11.1051 11.6665 10 11.6665H4.16667ZM20 17.4998H15.8333V15.8332C15.8333 14.2007 15.1633 12.7248 14.0833 11.6665H15.8333C16.3805 11.6665 16.9223 11.7743 17.4278 11.9837C17.9334 12.1931 18.3927 12.5 18.7796 12.8869C19.1665 13.2738 19.4734 13.7331 19.6828 14.2387C19.8922 14.7442 20 15.286 20 15.8332V17.4998ZM12.9167 9.99984C12.408 10.0001 11.9035 9.90714 11.4283 9.72567C12.3889 8.65694 12.9191 7.2701 12.9167 5.83317C12.9189 4.39613 12.3883 3.00928 11.4275 1.94067C11.9984 1.72267 12.6102 1.6329 13.2196 1.67773C13.8291 1.72256 14.4212 1.9009 14.954 2.20009C15.4868 2.49928 15.9473 2.91201 16.3029 3.40902C16.6584 3.90604 16.9002 4.47517 17.0113 5.07607C17.1223 5.67698 17.0998 6.29496 16.9454 6.8862C16.7909 7.47744 16.5083 8.02748 16.1176 8.49732C15.7269 8.96717 15.2376 9.34532 14.6844 9.60498C14.1313 9.86463 13.5277 9.99944 12.9167 9.99984Z" fill="white"/>
</svg>
