<svg width="24" height="24" viewBox="0 0 24 24" fill="none" xmlns="http://www.w3.org/2000/svg">
<path d="M10.4884 2.05676C12.727 2.06868 14.8713 2.96305 16.4542 4.54602C18.0372 6.12899 18.9316 8.27321 18.9435 10.5118C18.9536 12.4176 18.3212 14.2606 17.1671 15.754L22.5206 21.1075L21.1056 22.5216L15.7657 17.1818C15.1559 17.6715 14.4818 18.0777 13.7589 18.3839C12.7241 18.8222 11.6122 19.0508 10.4884 19.0568C9.36478 19.0627 8.25129 18.8453 7.21203 18.4181C6.17258 17.9908 5.22742 17.3622 4.43274 16.5675C3.63805 15.7728 3.00946 14.8277 2.58215 13.7882C2.15496 12.7489 1.93754 11.6355 1.94348 10.5118C1.94946 9.38806 2.17801 8.27612 2.61633 7.24133C3.05468 6.20652 3.69411 5.2687 4.49719 4.48254C6.09685 2.9166 8.2499 2.04493 10.4884 2.05676ZM10.4777 4.05676C8.76592 4.04776 7.11983 4.71479 5.8966 5.91223C5.28252 6.5134 4.79332 7.23031 4.45813 8.0216C4.12297 8.81289 3.94805 9.66326 3.94348 10.5226C3.93896 11.3818 4.10505 12.2337 4.43176 13.0284C4.75853 13.8232 5.23916 14.5458 5.8468 15.1534C6.45444 15.7611 7.17702 16.2417 7.9718 16.5685C8.76653 16.8952 9.6184 17.0613 10.4777 17.0568C11.337 17.0522 12.1874 16.8773 12.9786 16.5421C13.7705 16.2067 14.4872 15.7183 15.088 15.1046C16.2854 13.8815 16.9525 12.2345 16.9435 10.5226C16.9344 8.81069 16.2507 7.17059 15.0402 5.96008C13.8297 4.74957 12.1895 4.06588 10.4777 4.05676Z" fill="#262626"/>
</svg>
