<svg width="35" height="30" viewBox="0 0 35 30" fill="none" xmlns="http://www.w3.org/2000/svg">
<path fill-rule="evenodd" clip-rule="evenodd" d="M2.3964 12.9388C11.7897 8.71839 18.043 5.91407 21.183 4.55355C30.1201 0.69414 31.9987 0.0277656 33.2065 0C33.4748 0 34.0653 0.0555315 34.4678 0.388718C34.7899 0.666374 34.8704 1.02733 34.9241 1.30498C34.9778 1.58264 35.0314 2.16571 34.9778 2.60996C34.4947 7.88542 32.4013 20.6853 31.3278 26.5716C30.8715 29.0705 29.9859 29.9035 29.1271 29.9868C27.2484 30.1534 25.826 28.7096 24.0279 27.4879C21.183 25.5721 19.5996 24.3782 16.8353 22.4901C13.6415 20.3244 15.7081 19.1305 17.533 17.1869C18.0161 16.6871 26.2554 8.91275 26.4164 8.21861C26.4433 8.13531 26.4433 7.80212 26.2554 7.63553C26.0675 7.46894 25.7992 7.52447 25.5845 7.58C25.2892 7.63553 20.7805 10.7453 12.0044 16.8815C10.7162 17.7977 9.56216 18.242 8.51547 18.2142C7.36144 18.1864 5.16072 17.5478 3.49676 16.9925C1.48391 16.3262 -0.12637 15.9652 0.00781983 14.799C0.0883339 14.1882 0.893474 13.5774 2.3964 12.9388Z" fill="#262626"/>
</svg>
